<svg width="380" height="380" viewBox="0 0 380 380" fill="none" xmlns="http://www.w3.org/2000/svg">
<rect width="380" height="380" fill="#FF4D00"/>
<path d="M89.3939 117.456L70 127.459L103.939 180.803H70V199.697H141.515L89.3939 117.456Z" fill="#0E0E0E"/>
<path d="M141.515 90.7838L120.909 101.897L156.061 159.688L209.394 75.2249L190 63L156.061 117.456L141.515 90.7838Z" fill="#0E0E0E"/>
<path d="M259.091 101.897L238.485 90.7838L200.909 147.463H310V127.459L242.121 126.347L259.091 101.897Z" fill="#0E0E0E"/>
<path d="M310 180.803H238.485L289.394 266.378L310 254.153L276.061 199.697H310V180.803Z" fill="#0E0E0E"/>
<path d="M169.394 308.609L222.727 221.924L259.091 281.937L238.485 291.939L222.727 266.378L190 317.5L169.394 308.609Z" fill="#0E0E0E"/>
<path d="M70 254.153V233.037H175.455L136.667 291.939L120.909 281.937L136.667 254.153H70Z" fill="#0E0E0E"/>
<path d="M89.3939 117.456L70 127.459L103.939 180.803H70V199.697H141.515L89.3939 117.456Z" stroke="black"/>
<path d="M141.515 90.7838L120.909 101.897L156.061 159.688L209.394 75.2249L190 63L156.061 117.456L141.515 90.7838Z" stroke="black"/>
<path d="M259.091 101.897L238.485 90.7838L200.909 147.463H310V127.459L242.121 126.347L259.091 101.897Z" stroke="black"/>
<path d="M310 180.803H238.485L289.394 266.378L310 254.153L276.061 199.697H310V180.803Z" stroke="black"/>
<path d="M169.394 308.609L222.727 221.924L259.091 281.937L238.485 291.939L222.727 266.378L190 317.5L169.394 308.609Z" stroke="black"/>
<path d="M70 254.153V233.037H175.455L136.667 291.939L120.909 281.937L136.667 254.153H70Z" stroke="black"/>
</svg>
