<svg width="30" height="35" viewBox="0 0 30 35" fill="none" xmlns="http://www.w3.org/2000/svg">
<path d="M2.42424 7.48904L0 8.8647L4.24237 16.2008H0V18.7992H8.93937L2.42424 7.48904Z" fill="#FF4D00"/>
<path d="M8.93952 3.82095L6.36377 5.34929L10.7578 13.297L17.4244 1.68122L15.0001 0L10.7578 7.48904L8.93952 3.82095Z" fill="#FF4D00"/>
<path d="M23.6365 5.34932L21.0608 3.82098L16.3638 11.6158H30.0001V8.86472L21.5153 8.7118L23.6365 5.34932Z" fill="#FF4D00"/>
<path d="M29.9999 16.2008H21.0605L27.4242 27.9695L29.9999 26.2882L25.7575 18.7992H29.9999V16.2008Z" fill="#FF4D00"/>
<path d="M12.4243 33.7773L19.0909 21.856L23.6364 30.1092L21.0607 31.4847L19.0909 27.9695L15.0001 35L12.4243 33.7773Z" fill="#FF4D00"/>
<path d="M0 26.2882V23.3842H13.1819L8.33337 31.4847L6.36362 30.1092L8.33337 26.2882H0Z" fill="#FF4D00"/>
<path d="M2.42424 7.48904L0 8.8647L4.24237 16.2008H0V18.7992H8.93937L2.42424 7.48904Z" fill="#FF4D00"/>
<path d="M8.93952 3.82095L6.36377 5.34929L10.7578 13.297L17.4244 1.68122L15.0001 0L10.7578 7.48904L8.93952 3.82095Z" fill="#FF4D00"/>
<path d="M23.6365 5.34932L21.0608 3.82098L16.3638 11.6158H30.0001V8.86472L21.5153 8.7118L23.6365 5.34932Z" fill="#FF4D00"/>
<path d="M29.9999 16.2008H21.0605L27.4242 27.9695L29.9999 26.2882L25.7575 18.7992H29.9999V16.2008Z" fill="#FF4D00"/>
<path d="M12.4243 33.7773L19.0909 21.856L23.6364 30.1092L21.0607 31.4847L19.0909 27.9695L15.0001 35L12.4243 33.7773Z" fill="#FF4D00"/>
<path d="M0 26.2882V23.3842H13.1819L8.33337 31.4847L6.36362 30.1092L8.33337 26.2882H0Z" fill="#FF4D00"/>
</svg>
